<?xml version="1.0" ?><svg width="32px" height="32px" viewBox="0 -2 32 32" xmlns="http://www.w3.org/2000/svg">
  <defs>
    <style>
      .cls-1 {
        fill: #231f20;
      }
    </style>
  </defs>
  <g data-name="switch off" id="switch_off">
    <path class="cls-1"
      d="M24.16,21H7.84A4.84,4.84,0,0,1,3,16.16v-.32A4.84,4.84,0,0,1,7.84,11H24.16A4.84,4.84,0,0,1,29,15.84v.32A4.84,4.84,0,0,1,24.16,21ZM7.84,13A2.85,2.85,0,0,0,5,15.84v.32A2.85,2.85,0,0,0,7.84,19H24.16A2.85,2.85,0,0,0,27,16.16v-.32A2.85,2.85,0,0,0,24.16,13Z" />
    <path class="cls-1" d="M8,18a2,2,0,1,1,2-2A2,2,0,0,1,8,18Zm0-2Z" />
  </g>
</svg>