<?xml version="1.0" encoding="iso-8859-1"?>
<!-- Generator: Adobe Illustrator 19.0.0, SVG Export Plug-In . SVG Version: 6.00 Build 0)  -->
<svg version="1.1" id="Capa_1" xmlns="http://www.w3.org/2000/svg" xmlns:xlink="http://www.w3.org/1999/xlink" x="0px" y="0px"
	 viewBox="0 0 512 512" style="enable-background:new 0 0 512 512;" xml:space="preserve">
<g>
	<g>
		<path style="fill:#8A8895;" d="M496,128H16c-8.837,0-16-7.163-16-16V80c0-8.837,7.163-16,16-16h480c8.837,0,16,7.163,16,16v32
			C512,120.837,504.837,128,496,128z"/>
	</g>
	<g>
		<g>
			<path style="fill:#5C546A;" d="M472,104H40c-4.422,0-8-3.582-8-8s3.578-8,8-8h432c4.422,0,8,3.582,8,8S476.422,104,472,104z"/>
		</g>
	</g>
	<g>
		<path style="fill:#73D14F;" d="M440,96c-4.422,0-363.578,0-368,0s-8,3.582-8,8v320c0,13.234,10.766,24,24,24h336
			c13.234,0,24-10.766,24-24V104C448,99.582,444.422,96,440,96z"/>
	</g>
	<g>
		<path style="fill:#FFEEBB;" d="M112,312c0,4.418,3.578,8,8,8c39.703,0,72,32.301,72,72c0,4.418,3.578,8,8,8h112
			c4.422,0,8-3.582,8-8c0-39.699,32.297-72,72-72c4.422,0,8-3.582,8-8V96H112V312z"/>
	</g>
	<g>
		<g>
			<path style="fill:#859A55;" d="M120,336c-4.422,0-8,3.582-8,8v48c0,4.418,3.578,8,8,8h48c4.422,0,8-3.582,8-8
				C176,361.121,150.875,336,120,336z"/>
		</g>
		<g>
			<path style="fill:#859A55;" d="M392,336c-30.875,0-56,25.121-56,56c0,4.418,3.578,8,8,8h48c4.422,0,8-3.582,8-8v-48
				C400,339.582,396.422,336,392,336z"/>
		</g>
	</g>
	<g>
		<circle style="fill:#73D14F;" cx="256" cy="304" r="40"/>
	</g>
	<g>
		<g>
			<path style="fill:#859A55;" d="M112.367,96c-0.122,2.052-0.367,4.076-0.367,6.154C112,169.447,176.471,224,256,224
				s144-54.553,144-121.846c0-2.078,0.122-4.102,0-6.154H112.367z"/>
		</g>
		<g>
			<path style="fill:#73D14F;" d="M112.228,96c-0.121,2.042-0.228,4.086-0.228,6.154c0,41.599,24.676,78.287,62.277,100.271
				l17.883-5.571c11.977-3.731,20.833-13.889,22.895-26.264l7.713-46.282c0-12.235-1.158,0,11.077,0V96H112.228z"/>
		</g>
		<g>
			<path style="fill:#FFEEBB;" d="M201.02,96c-0.225,2.026-0.405,4.067-0.405,6.154c0,9.954,2.626,19.294,7.223,27.367
				c2.03,3.565,5.73,5.866,9.833,5.866L256,135.384l11.077-22.154L271.385,96H201.02z"/>
		</g>
		<g>
			<path style="fill:#FFEEBB;" d="M223.132,96c-0.225,2.023-0.363,4.072-0.363,6.154c0,30.537,24.848,55.385,55.385,55.385h11.077
				c30.537,0,55.384-24.848,55.384-55.385c0-2.082-0.138-4.131-0.363-6.154H223.132z"/>
		</g>
	</g>
</g>
<g>
</g>
<g>
</g>
<g>
</g>
<g>
</g>
<g>
</g>
<g>
</g>
<g>
</g>
<g>
</g>
<g>
</g>
<g>
</g>
<g>
</g>
<g>
</g>
<g>
</g>
<g>
</g>
<g>
</g>
</svg>
