<?xml version="1.0" encoding="utf-8"?>
<svg viewBox="153.969 118.874 260.344 267.688" xmlns="http://www.w3.org/2000/svg">
  <path d="M 157.232 202.976 C 157.232 202.976 151.358 198.697 158.408 192.982 L 174.831 178.139 C 174.831 178.139 179.531 173.14 184.5 177.495 L 336.055 293.478 L 336.055 349.094 C 336.055 349.094 335.981 357.829 324.895 356.863 L 157.232 202.976 Z" fill="black" style=""/>
  <path d="M 196.296 238.827 L 157.232 274.726 C 157.232 274.726 153.218 277.745 157.232 283.138 L 175.37 299.813 C 175.37 299.813 179.678 304.488 186.04 299.169 L 227.455 267.427 L 196.296 238.827 Z" fill="black" style=""/>
  <path d="M 264.876 239.123 L 336.517 183.828 L 336.053 128.507 C 336.053 128.507 332.992 116.435 322.787 122.718 L 227.453 210.424 L 264.876 239.123 Z" fill="black" style=""/>
  <path d="M 324.89 356.939 C 329.051 361.244 334.094 359.833 334.094 359.833 L 389.926 332.026 C 397.072 327.1 396.069 320.99 396.069 320.99 L 396.069 154.931 C 396.069 147.633 388.678 145.108 388.678 145.108 L 340.285 121.532 C 329.712 114.925 322.787 122.718 322.787 122.718 C 322.787 122.718 331.694 116.236 336.053 128.507 L 336.053 348.081 C 336.053 349.591 335.733 351.076 335.097 352.412 C 333.824 355.008 331.058 357.433 324.426 356.42 L 324.89 356.939 Z" fill="black" style=""/>
  <path d="M 156.165705859375 381.0050046386719 L 157.754705859375 381.0050046386719 Q 158.095205859375 381.0050046386719 158.095205859375 380.6645046386719 L 158.095205859375 366.8175046386719 Q 158.095205859375 366.4770046386719 157.754705859375 366.4770046386719 L 156.165705859375 366.4770046386719 Q 155.825205859375 366.4770046386719 155.825205859375 366.13650463867185 Q 155.825205859375 365.7960046386719 156.165705859375 365.7960046386719 L 158.662705859375 365.7960046386719 Q 159.071305859375 365.7960046386719 159.230205859375 366.13650463867185 L 165.586205859375 380.21050463867186 Q 165.813205859375 380.6645046386719 166.040205859375 380.21050463867186 L 172.39620585937502 366.13650463867185 Q 172.555105859375 365.7960046386719 172.963705859375 365.7960046386719 L 175.460705859375 365.7960046386719 Q 175.801205859375 365.7960046386719 175.801205859375 366.13650463867185 Q 175.801205859375 366.4770046386719 175.460705859375 366.4770046386719 L 173.871705859375 366.4770046386719 Q 173.531205859375 366.4770046386719 173.531205859375 366.8175046386719 L 173.531205859375 380.6645046386719 Q 173.531205859375 381.0050046386719 173.871705859375 381.0050046386719 L 175.460705859375 381.0050046386719 Q 175.801205859375 381.0050046386719 175.801205859375 381.34550463867185 Q 175.801205859375 381.6860046386719 175.460705859375 381.6860046386719 L 171.147705859375 381.6860046386719 Q 170.807205859375 381.6860046386719 170.807205859375 381.34550463867185 Q 170.807205859375 381.0050046386719 171.147705859375 381.0050046386719 L 172.509705859375 381.0050046386719 Q 172.850205859375 381.0050046386719 172.850205859375 380.6645046386719 L 172.850205859375 367.3850046386719 Q 172.850205859375 367.15800463867185 172.759405859375 367.2034046386719 Q 172.714005859375 367.2034046386719 172.668605859375 367.2715046386719 L 166.312605859375 381.34550463867185 Q 166.131005859375 381.6860046386719 165.813205859375 381.6860046386719 Q 165.495405859375 381.6860046386719 165.313805859375 381.34550463867185 L 158.95780585937501 367.2715046386719 Q 158.867005859375 367.13530463867187 158.821605859375 367.2034046386719 Q 158.776205859375 367.2715046386719 158.776205859375 367.3850046386719 L 158.776205859375 380.6645046386719 Q 158.776205859375 381.0050046386719 159.116705859375 381.0050046386719 L 160.478705859375 381.0050046386719 Q 160.819205859375 381.0050046386719 160.819205859375 381.34550463867185 Q 160.819205859375 381.6860046386719 160.478705859375 381.6860046386719 L 156.165705859375 381.6860046386719 Q 155.825205859375 381.6860046386719 155.825205859375 381.34550463867185 Q 155.825205859375 381.0050046386719 156.165705859375 381.0050046386719 Z M 185.18932387695313 367.04450463867187 Q 185.14392387695312 366.9083046386719 185.05312387695312 366.9083046386719 Q 184.96232387695312 366.9083046386719 184.91692387695312 367.04450463867187 L 181.80702387695314 375.1257046386719 Q 181.62542387695314 375.46620463867185 182.05672387695313 375.46620463867185 L 188.04952387695312 375.46620463867185 Q 188.45812387695312 375.46620463867185 188.29922387695314 375.1257046386719 Z M 188.82132387695313 376.46500463867187 Q 188.68512387695313 376.1472046386719 188.27652387695312 376.1472046386719 L 181.82972387695312 376.1472046386719 Q 181.42112387695312 376.1472046386719 181.28492387695312 376.46500463867187 L 179.67322387695313 380.6645046386719 Q 179.49162387695313 381.0050046386719 179.90022387695313 381.0050046386719 L 181.26222387695313 381.0050046386719 Q 181.60272387695312 381.0050046386719 181.60272387695312 381.34550463867185 Q 181.60272387695312 381.6860046386719 181.26222387695313 381.6860046386719 L 176.9492238769531 381.6860046386719 Q 176.60872387695312 381.6860046386719 176.60872387695312 381.34550463867185 Q 176.60872387695312 381.0050046386719 176.9492238769531 381.0050046386719 L 178.42472387695312 381.0050046386719 Q 178.69712387695313 381.0050046386719 178.87872387695313 380.6645046386719 L 184.55372387695311 365.9095046386719 Q 184.64452387695312 365.56900463867186 185.05312387695312 365.56900463867186 Q 185.46172387695313 365.56900463867186 185.55252387695313 365.9095046386719 L 191.22752387695311 380.6645046386719 Q 191.38642387695313 381.0050046386719 191.68152387695312 381.0050046386719 L 193.15702387695313 381.0050046386719 Q 193.49752387695312 381.0050046386719 193.49752387695312 381.34550463867185 Q 193.49752387695312 381.6860046386719 193.15702387695313 381.6860046386719 L 188.84402387695312 381.6860046386719 Q 188.50352387695312 381.6860046386719 188.50352387695312 381.34550463867185 Q 188.50352387695312 381.0050046386719 188.84402387695312 381.0050046386719 L 190.2060238769531 381.0050046386719 Q 190.59192387695313 381.0050046386719 190.43302387695311 380.6645046386719 Z M 192.78706889648439 369.4280046386719 L 192.78706889648439 366.13650463867185 Q 192.78706889648439 365.7960046386719 193.12756889648438 365.7960046386719 L 205.3855688964844 365.7960046386719 Q 205.72606889648438 365.7960046386719 205.72606889648438 366.13650463867185 L 205.72606889648438 369.4280046386719 Q 205.72606889648438 369.76850463867186 205.3855688964844 369.76850463867186 Q 205.04506889648437 369.76850463867186 205.04506889648437 369.4280046386719 L 205.04506889648437 366.8175046386719 Q 205.04506889648437 366.4770046386719 204.70456889648437 366.4770046386719 L 199.93756889648438 366.4770046386719 Q 199.5970688964844 366.4770046386719 199.5970688964844 366.8175046386719 L 199.5970688964844 380.6645046386719 Q 199.5970688964844 381.0050046386719 199.93756889648438 381.0050046386719 L 201.52656889648438 381.0050046386719 Q 201.86706889648437 381.0050046386719 201.86706889648437 381.34550463867185 Q 201.86706889648437 381.6860046386719 201.52656889648438 381.6860046386719 L 196.98656889648439 381.6860046386719 Q 196.64606889648437 381.6860046386719 196.64606889648437 381.34550463867185 Q 196.64606889648437 381.0050046386719 196.98656889648439 381.0050046386719 L 198.57556889648438 381.0050046386719 Q 198.91606889648438 381.0050046386719 198.91606889648438 380.6645046386719 L 198.91606889648438 366.8175046386719 Q 198.91606889648438 366.4770046386719 198.57556889648438 366.4770046386719 L 193.8085688964844 366.4770046386719 Q 193.46806889648437 366.4770046386719 193.46806889648437 366.8175046386719 L 193.46806889648437 369.4280046386719 Q 193.46806889648437 369.76850463867186 193.12756889648438 369.76850463867186 Q 192.78706889648439 369.76850463867186 192.78706889648439 369.4280046386719 Z M 215.20849931640626 373.7410046386719 Q 217.06989931640624 373.7410046386719 218.06869931640625 372.7876046386719 Q 219.06749931640624 371.83420463867185 219.06749931640624 370.1090046386719 Q 219.06749931640624 368.38380463867185 218.06869931640625 367.43040463867186 Q 217.06989931640624 366.4770046386719 215.20849931640626 366.4770046386719 L 210.55499931640625 366.4770046386719 Q 210.21449931640626 366.4770046386719 210.21449931640626 366.8175046386719 L 210.21449931640626 373.40050463867186 Q 210.21449931640626 373.7410046386719 210.55499931640625 373.7410046386719 Z M 210.21449931640626 380.6645046386719 Q 210.21449931640626 381.0050046386719 210.55499931640625 381.0050046386719 L 211.91699931640625 381.0050046386719 Q 212.25749931640624 381.0050046386719 212.25749931640624 381.34550463867185 Q 212.25749931640624 381.6860046386719 211.91699931640625 381.6860046386719 L 207.60399931640626 381.6860046386719 Q 207.26349931640624 381.6860046386719 207.26349931640624 381.34550463867185 Q 207.26349931640624 381.0050046386719 207.60399931640626 381.0050046386719 L 209.19299931640626 381.0050046386719 Q 209.53349931640625 381.0050046386719 209.53349931640625 380.6645046386719 L 209.53349931640625 366.8175046386719 Q 209.53349931640625 366.4770046386719 209.19299931640626 366.4770046386719 L 207.60399931640626 366.4770046386719 Q 207.26349931640624 366.4770046386719 207.26349931640624 366.13650463867185 Q 207.26349931640624 365.7960046386719 207.60399931640626 365.7960046386719 L 215.20849931640626 365.7960046386719 Q 217.41039931640626 365.7960046386719 218.57944931640625 366.9310046386719 Q 219.74849931640625 368.06600463867187 219.74849931640625 370.1090046386719 Q 219.74849931640625 372.1520046386719 218.57944931640625 373.2870046386719 Q 217.41039931640626 374.42200463867186 215.20849931640626 374.42200463867186 L 215.09499931640624 374.42200463867186 Q 214.91339931640624 374.42200463867186 214.83394931640626 374.52415463867186 Q 214.75449931640625 374.62630463867185 214.86799931640624 374.7625046386719 L 219.18099931640626 380.6645046386719 Q 219.47609931640625 381.0050046386719 219.74849931640625 381.0050046386719 L 221.22399931640626 381.0050046386719 Q 221.56449931640626 381.0050046386719 221.56449931640626 381.34550463867185 Q 221.56449931640626 381.6860046386719 221.22399931640626 381.6860046386719 L 216.68399931640624 381.6860046386719 Q 216.34349931640625 381.6860046386719 216.34349931640625 381.34550463867185 Q 216.34349931640625 381.0050046386719 216.68399931640624 381.0050046386719 L 218.15949931640625 381.0050046386719 Q 218.56809931640626 381.0050046386719 218.27299931640624 380.6645046386719 L 213.73299931640625 374.42200463867186 L 210.55499931640625 374.42200463867186 Q 210.21449931640626 374.42200463867186 210.21449931640626 374.7625046386719 Z M 223.21474760742188 381.6860046386719 Q 222.87424760742186 381.6860046386719 222.87424760742186 381.34550463867185 Q 222.87424760742186 381.0050046386719 223.21474760742188 381.0050046386719 L 224.80374760742188 381.0050046386719 Q 225.14424760742187 381.0050046386719 225.14424760742187 380.6645046386719 L 225.14424760742187 366.8175046386719 Q 225.14424760742187 366.4770046386719 224.80374760742188 366.4770046386719 L 223.21474760742188 366.4770046386719 Q 222.87424760742186 366.4770046386719 222.87424760742186 366.13650463867185 Q 222.87424760742186 365.7960046386719 223.21474760742188 365.7960046386719 L 227.75474760742188 365.7960046386719 Q 228.09524760742187 365.7960046386719 228.09524760742187 366.13650463867185 Q 228.09524760742187 366.4770046386719 227.75474760742188 366.4770046386719 L 226.16574760742188 366.4770046386719 Q 225.8252476074219 366.4770046386719 225.8252476074219 366.8175046386719 L 225.8252476074219 380.6645046386719 Q 225.8252476074219 381.0050046386719 226.16574760742188 381.0050046386719 L 227.75474760742188 381.0050046386719 Q 228.09524760742187 381.0050046386719 228.09524760742187 381.34550463867185 Q 228.09524760742187 381.6860046386719 227.75474760742188 381.6860046386719 L 223.21474760742188 381.6860046386719 Z M 229.63563046875 381.0050046386719 L 230.99763046875 381.0050046386719 Q 231.36083046875 381.0050046386719 231.56513046875 380.6645046386719 L 236.10513046875 373.78640463867185 Q 236.24133046875 373.58210463867186 236.10513046875 373.3778046386719 L 231.79213046875 366.8175046386719 Q 231.58783046875 366.4770046386719 231.22463046875 366.4770046386719 L 229.86263046875 366.4770046386719 Q 229.52213046875 366.4770046386719 229.52213046875 366.13650463867185 Q 229.52213046875 365.7960046386719 229.86263046875 365.7960046386719 L 234.17563046875 365.7960046386719 Q 234.51613046875 365.7960046386719 234.51613046875 366.13650463867185 Q 234.51613046875 366.4770046386719 234.17563046875 366.4770046386719 L 232.81363046875 366.4770046386719 Q 232.63203046875 366.4770046386719 232.56393046875 366.57915463867187 Q 232.49583046875 366.68130463867186 232.58663046875 366.8175046386719 L 236.46833046875 372.7195046386719 Q 236.62723046875 372.94650463867185 236.78613046875 372.7195046386719 L 240.69053046875 366.8175046386719 Q 240.78133046875 366.68130463867186 240.71323046875 366.57915463867187 Q 240.64513046875 366.4770046386719 240.46353046875 366.4770046386719 L 239.10153046875 366.4770046386719 Q 238.76103046875 366.4770046386719 238.76103046875 366.13650463867185 Q 238.76103046875 365.7960046386719 239.10153046875 365.7960046386719 L 243.41453046875 365.7960046386719 Q 243.75503046875 365.7960046386719 243.75503046875 366.13650463867185 Q 243.75503046875 366.4770046386719 243.41453046875 366.4770046386719 L 242.05253046875 366.4770046386719 Q 241.68933046875 366.4770046386719 241.48503046875 366.8175046386719 L 237.17203046875 373.3778046386719 Q 237.03583046875 373.58210463867186 237.17203046875 373.78640463867185 L 241.71203046875002 380.6645046386719 Q 241.91633046875 381.0050046386719 242.27953046875 381.0050046386719 L 243.64153046875 381.0050046386719 Q 243.98203046875 381.0050046386719 243.98203046875 381.34550463867185 Q 243.98203046875 381.6860046386719 243.64153046875 381.6860046386719 L 239.32853046875 381.6860046386719 Q 238.98803046875 381.6860046386719 238.98803046875 381.34550463867185 Q 238.98803046875 381.0050046386719 239.32853046875 381.0050046386719 L 240.69053046875 381.0050046386719 Q 240.87213046875002 381.0050046386719 240.94023046875 380.9028546386719 Q 241.00833046875 380.8007046386719 240.91753046875 380.6645046386719 L 236.78613046875 374.42200463867186 Q 236.62723046875 374.1950046386719 236.46833046875 374.42200463867186 L 232.35963046875 380.6645046386719 Q 232.26883046875 380.8007046386719 232.33693046875 380.9028546386719 Q 232.40503046875 381.0050046386719 232.58663046875 381.0050046386719 L 233.94863046875 381.0050046386719 Q 234.28913046875 381.0050046386719 234.28913046875 381.34550463867185 Q 234.28913046875 381.6860046386719 233.94863046875 381.6860046386719 L 229.63563046875 381.6860046386719 Q 229.29513046875 381.6860046386719 229.29513046875 381.34550463867185 Q 229.29513046875 381.0050046386719 229.63563046875 381.0050046386719 Z M 259.476748828125 373.7410046386719 Q 261.338148828125 373.7410046386719 262.336948828125 372.7876046386719 Q 263.335748828125 371.83420463867185 263.335748828125 370.1090046386719 Q 263.335748828125 368.38380463867185 262.336948828125 367.43040463867186 Q 261.338148828125 366.4770046386719 259.476748828125 366.4770046386719 L 254.823248828125 366.4770046386719 Q 254.482748828125 366.4770046386719 254.482748828125 366.8175046386719 L 254.482748828125 373.40050463867186 Q 254.482748828125 373.7410046386719 254.823248828125 373.7410046386719 Z M 254.482748828125 380.6645046386719 Q 254.482748828125 381.0050046386719 254.823248828125 381.0050046386719 L 256.185248828125 381.0050046386719 Q 256.525748828125 381.0050046386719 256.525748828125 381.34550463867185 Q 256.525748828125 381.6860046386719 256.185248828125 381.6860046386719 L 251.872248828125 381.6860046386719 Q 251.531748828125 381.6860046386719 251.531748828125 381.34550463867185 Q 251.531748828125 381.0050046386719 251.872248828125 381.0050046386719 L 253.461248828125 381.0050046386719 Q 253.801748828125 381.0050046386719 253.801748828125 380.6645046386719 L 253.801748828125 366.8175046386719 Q 253.801748828125 366.4770046386719 253.461248828125 366.4770046386719 L 251.872248828125 366.4770046386719 Q 251.531748828125 366.4770046386719 251.531748828125 366.13650463867185 Q 251.531748828125 365.7960046386719 251.872248828125 365.7960046386719 L 259.476748828125 365.7960046386719 Q 261.678648828125 365.7960046386719 262.847698828125 366.9310046386719 Q 264.016748828125 368.06600463867187 264.016748828125 370.1090046386719 Q 264.016748828125 372.1520046386719 262.847698828125 373.2870046386719 Q 261.678648828125 374.42200463867186 259.476748828125 374.42200463867186 L 259.363248828125 374.42200463867186 Q 259.181648828125 374.42200463867186 259.102198828125 374.52415463867186 Q 259.022748828125 374.62630463867185 259.136248828125 374.7625046386719 L 263.449248828125 380.6645046386719 Q 263.744348828125 381.0050046386719 264.016748828125 381.0050046386719 L 265.492248828125 381.0050046386719 Q 265.832748828125 381.0050046386719 265.832748828125 381.34550463867185 Q 265.832748828125 381.6860046386719 265.492248828125 381.6860046386719 L 260.952248828125 381.6860046386719 Q 260.611748828125 381.6860046386719 260.611748828125 381.34550463867185 Q 260.611748828125 381.0050046386719 260.952248828125 381.0050046386719 L 262.427748828125 381.0050046386719 Q 262.836348828125 381.0050046386719 262.541248828125 380.6645046386719 L 258.001248828125 374.42200463867186 L 254.823248828125 374.42200463867186 Q 254.482748828125 374.42200463867186 254.482748828125 374.7625046386719 Z M 267.48299711914063 381.6860046386719 Q 267.1424971191406 381.6860046386719 267.1424971191406 381.34550463867185 Q 267.1424971191406 381.0050046386719 267.48299711914063 381.0050046386719 L 269.07199711914063 381.0050046386719 Q 269.41249711914065 381.0050046386719 269.41249711914065 380.6645046386719 L 269.41249711914065 366.8175046386719 Q 269.41249711914065 366.4770046386719 269.07199711914063 366.4770046386719 L 267.48299711914063 366.4770046386719 Q 267.1424971191406 366.4770046386719 267.1424971191406 366.13650463867185 Q 267.1424971191406 365.7960046386719 267.48299711914063 365.7960046386719 L 278.2654971191406 365.7960046386719 Q 278.6059971191406 365.7960046386719 278.6059971191406 366.13650463867185 L 278.6059971191406 369.31450463867185 Q 278.6059971191406 369.65500463867187 278.2654971191406 369.65500463867187 Q 277.92499711914064 369.65500463867187 277.92499711914064 369.31450463867185 L 277.92499711914064 366.8175046386719 Q 277.92499711914064 366.4770046386719 277.5844971191406 366.4770046386719 L 270.4339971191406 366.4770046386719 Q 270.09349711914064 366.4770046386719 270.09349711914064 366.8175046386719 L 270.09349711914064 372.94650463867185 Q 270.09349711914064 373.2870046386719 270.4339971191406 373.2870046386719 L 275.5414971191406 373.2870046386719 Q 275.88199711914064 373.2870046386719 275.88199711914064 372.94650463867185 L 275.88199711914064 371.81150463867186 Q 275.88199711914064 371.4710046386719 276.2224971191406 371.4710046386719 Q 276.5629971191406 371.4710046386719 276.5629971191406 371.81150463867186 L 276.5629971191406 375.44350463867187 Q 276.5629971191406 375.7840046386719 276.2224971191406 375.7840046386719 Q 275.88199711914064 375.7840046386719 275.88199711914064 375.44350463867187 L 275.88199711914064 374.3085046386719 Q 275.88199711914064 373.96800463867186 275.5414971191406 373.96800463867186 L 270.4339971191406 373.96800463867186 Q 270.09349711914064 373.96800463867186 270.09349711914064 374.3085046386719 L 270.09349711914064 380.6645046386719 Q 270.09349711914064 381.0050046386719 270.4339971191406 381.0050046386719 L 277.81149711914065 381.0050046386719 Q 278.1519971191406 381.0050046386719 278.1519971191406 380.6645046386719 L 278.1519971191406 378.16750463867186 Q 278.1519971191406 377.8270046386719 278.49249711914064 377.8270046386719 Q 278.8329971191406 377.8270046386719 278.8329971191406 378.16750463867186 L 278.8329971191406 381.34550463867185 Q 278.8329971191406 381.6860046386719 278.49249711914064 381.6860046386719 L 267.48299711914063 381.6860046386719 Z M 283.75276826171876 379.9835046386719 Q 285.65956826171873 381.23200463867187 287.94091826171876 381.23200463867187 Q 290.22226826171874 381.23200463867187 291.48211826171877 380.22185463867186 Q 292.74196826171874 379.21170463867185 292.74196826171874 377.60000463867186 Q 292.74196826171874 376.7147046386719 292.19716826171873 376.0564046386719 Q 291.6523682617188 375.3981046386719 290.83516826171876 375.0349046386719 Q 289.92716826171875 374.62630463867185 287.31666826171875 373.9112546386719 Q 284.70616826171874 373.1962046386719 283.7187182617188 372.7081546386719 Q 282.73126826171875 372.2201046386719 282.17511826171875 371.4710046386719 Q 281.61896826171875 370.7219046386719 281.61896826171875 369.74580463867187 Q 281.61896826171875 367.8390046386719 282.8674682617187 366.70400463867185 Q 284.11596826171876 365.56900463867186 286.83996826171875 365.56900463867186 Q 289.54126826171876 365.56900463867186 291.81126826171874 367.4985046386719 Q 292.17446826171874 367.79360463867187 292.17446826171874 367.2715046386719 L 292.17446826171874 366.13650463867185 Q 292.17446826171874 365.7960046386719 292.51496826171876 365.7960046386719 Q 292.8554682617187 365.7960046386719 292.8554682617187 366.13650463867185 L 292.8554682617187 370.4495046386719 Q 292.8554682617187 370.79000463867186 292.51496826171876 370.79000463867186 Q 292.17446826171874 370.79000463867186 292.17446826171874 370.4495046386719 L 292.17446826171874 368.8605046386719 Q 290.92596826171877 367.43040463867186 289.06456826171876 366.6586046386719 Q 288.06576826171874 366.2500046386719 286.83996826171875 366.2500046386719 Q 284.52456826171874 366.2500046386719 283.41226826171874 367.2034046386719 Q 282.29996826171873 368.1568046386719 282.29996826171873 369.5415046386719 Q 282.29996826171873 370.42680463867185 282.84476826171874 371.08510463867185 Q 283.38956826171875 371.74340463867185 284.20676826171876 372.10660463867185 Q 285.1147682617187 372.5152046386719 287.7252682617187 373.23025463867185 Q 290.3357682617187 373.94530463867187 291.32321826171875 374.43335463867186 Q 292.3106682617188 374.9214046386719 292.8668182617188 375.6705046386719 Q 293.4229682617188 376.4196046386719 293.4229682617188 377.4638046386719 Q 293.4229682617188 379.5068046386719 291.99286826171874 380.7099046386719 Q 290.56276826171876 381.91300463867185 287.74796826171877 381.91300463867185 Q 284.9331682617188 381.91300463867185 282.66316826171874 379.9835046386719 Q 282.29996826171873 379.6884046386719 282.29996826171873 380.21050463867186 L 282.29996826171873 381.34550463867185 Q 282.29996826171873 381.6860046386719 281.95946826171877 381.6860046386719 Q 281.61896826171875 381.6860046386719 281.61896826171875 381.34550463867185 L 281.61896826171875 377.03250463867187 Q 281.61896826171875 376.69200463867185 281.95946826171877 376.69200463867185 Q 282.29996826171873 376.69200463867185 282.29996826171873 377.03250463867187 L 282.29996826171873 378.73500463867185 Q 282.91286826171876 379.4387046386719 283.75276826171876 379.9835046386719 Z M 298.0700390625 379.6089546386719 Q 298.0700390625 379.6089546386719 297.0258390625 378.45692963867185 Q 295.9816390625 377.30490463867187 295.9816390625 373.7410046386719 Q 295.9816390625 370.1771046386719 298.0700390625 367.8730546386719 Q 300.1584390625 365.56900463867186 303.5861390625 365.56900463867186 Q 307.0138390625 365.56900463867186 309.1022390625 367.8730546386719 Q 311.1906390625 370.1771046386719 311.1906390625 373.7410046386719 Q 311.1906390625 377.30490463867187 309.1022390625 379.6089546386719 Q 307.0138390625 381.91300463867185 303.5861390625 381.91300463867185 Q 300.1584390625 381.91300463867185 298.0700390625 379.6089546386719 Z M 298.5694390625 368.36110463867186 Q 298.5694390625 368.36110463867186 297.6160390625 369.4166546386719 Q 296.6626390625 370.4722046386719 296.6626390625 373.7410046386719 Q 296.6626390625 377.0098046386719 298.5694390625 379.1209046386719 Q 300.4762390625 381.23200463867187 303.5861390625 381.23200463867187 Q 306.6960390625 381.23200463867187 308.6028390625 379.1209046386719 Q 310.5096390625 377.0098046386719 310.5096390625 373.7410046386719 Q 310.5096390625 370.4722046386719 308.6028390625 368.36110463867186 Q 306.6960390625 366.2500046386719 303.5861390625 366.2500046386719 Q 300.4762390625 366.2500046386719 298.5694390625 368.36110463867186 Z M 313.63451689453126 381.6860046386719 Q 313.29401689453124 381.6860046386719 313.29401689453124 381.34550463867185 Q 313.29401689453124 381.0050046386719 313.63451689453126 381.0050046386719 L 315.22351689453126 381.0050046386719 Q 315.5640168945313 381.0050046386719 315.5640168945313 380.6645046386719 L 315.5640168945313 366.8175046386719 Q 315.5640168945313 366.4770046386719 315.22351689453126 366.4770046386719 L 313.63451689453126 366.4770046386719 Q 313.29401689453124 366.4770046386719 313.29401689453124 366.13650463867185 Q 313.29401689453124 365.7960046386719 313.63451689453126 365.7960046386719 L 318.62851689453123 365.7960046386719 Q 318.96901689453125 365.7960046386719 318.96901689453125 366.13650463867185 Q 318.96901689453125 366.4770046386719 318.62851689453123 366.4770046386719 L 316.5855168945312 366.4770046386719 Q 316.24501689453126 366.4770046386719 316.24501689453126 366.8175046386719 L 316.24501689453126 380.6645046386719 Q 316.24501689453126 381.0050046386719 316.5855168945312 381.0050046386719 L 323.84951689453123 381.0050046386719 Q 324.19001689453125 381.0050046386719 324.19001689453125 380.6645046386719 L 324.19001689453125 378.16750463867186 Q 324.19001689453125 377.8270046386719 324.5305168945313 377.8270046386719 Q 324.87101689453124 377.8270046386719 324.87101689453124 378.16750463867186 L 324.87101689453124 381.34550463867185 Q 324.87101689453124 381.6860046386719 324.5305168945313 381.6860046386719 L 313.63451689453126 381.6860046386719 Z M 325.7054090820312 365.7960046386719 L 330.01840908203127 365.7960046386719 Q 330.35890908203123 365.7960046386719 330.35890908203123 366.13650463867185 Q 330.35890908203123 366.4770046386719 330.01840908203127 366.4770046386719 L 328.65640908203125 366.4770046386719 Q 328.3159090820312 366.4770046386719 328.3159090820312 366.8175046386719 L 328.3159090820312 376.01100463867186 Q 328.3159090820312 378.37180463867185 329.79140908203124 379.8019046386719 Q 331.26690908203125 381.23200463867187 333.53690908203123 381.23200463867187 Q 335.80690908203127 381.23200463867187 337.2824090820312 379.8019046386719 Q 338.75790908203123 378.37180463867185 338.75790908203123 376.01100463867186 L 338.75790908203123 366.8175046386719 Q 338.75790908203123 366.4770046386719 338.41740908203127 366.4770046386719 L 337.05540908203125 366.4770046386719 Q 336.7149090820312 366.4770046386719 336.7149090820312 366.13650463867185 Q 336.7149090820312 365.7960046386719 337.05540908203125 365.7960046386719 L 341.36840908203123 365.7960046386719 Q 341.70890908203125 365.7960046386719 341.70890908203125 366.13650463867185 Q 341.70890908203125 366.4770046386719 341.36840908203123 366.4770046386719 L 339.77940908203124 366.4770046386719 Q 339.4389090820313 366.4770046386719 339.4389090820313 366.8175046386719 L 339.4389090820313 376.01100463867186 Q 339.4389090820313 378.62150463867187 337.77045908203127 380.2672546386719 Q 336.10200908203126 381.91300463867185 333.53690908203123 381.91300463867185 Q 330.97180908203126 381.91300463867185 329.30335908203125 380.2672546386719 Q 327.63490908203124 378.62150463867187 327.63490908203124 376.01100463867186 L 327.63490908203124 366.8175046386719 Q 327.63490908203124 366.4770046386719 327.2944090820312 366.4770046386719 L 325.7054090820312 366.4770046386719 Q 325.36490908203126 366.4770046386719 325.36490908203126 366.13650463867185 Q 325.36490908203126 365.7960046386719 325.7054090820312 365.7960046386719 Z M 342.9269919921875 369.4280046386719 L 342.9269919921875 366.13650463867185 Q 342.9269919921875 365.7960046386719 343.2674919921875 365.7960046386719 L 355.5254919921875 365.7960046386719 Q 355.8659919921875 365.7960046386719 355.8659919921875 366.13650463867185 L 355.8659919921875 369.4280046386719 Q 355.8659919921875 369.76850463867186 355.5254919921875 369.76850463867186 Q 355.1849919921875 369.76850463867186 355.1849919921875 369.4280046386719 L 355.1849919921875 366.8175046386719 Q 355.1849919921875 366.4770046386719 354.8444919921875 366.4770046386719 L 350.0774919921875 366.4770046386719 Q 349.7369919921875 366.4770046386719 349.7369919921875 366.8175046386719 L 349.7369919921875 380.6645046386719 Q 349.7369919921875 381.0050046386719 350.0774919921875 381.0050046386719 L 351.6664919921875 381.0050046386719 Q 352.0069919921875 381.0050046386719 352.0069919921875 381.34550463867185 Q 352.0069919921875 381.6860046386719 351.6664919921875 381.6860046386719 L 347.1264919921875 381.6860046386719 Q 346.7859919921875 381.6860046386719 346.7859919921875 381.34550463867185 Q 346.7859919921875 381.0050046386719 347.1264919921875 381.0050046386719 L 348.7154919921875 381.0050046386719 Q 349.0559919921875 381.0050046386719 349.0559919921875 380.6645046386719 L 349.0559919921875 366.8175046386719 Q 349.0559919921875 366.4770046386719 348.7154919921875 366.4770046386719 L 343.9484919921875 366.4770046386719 Q 343.6079919921875 366.4770046386719 343.6079919921875 366.8175046386719 L 343.6079919921875 369.4280046386719 Q 343.6079919921875 369.76850463867186 343.2674919921875 369.76850463867186 Q 342.9269919921875 369.76850463867186 342.9269919921875 369.4280046386719 Z M 357.7439224121094 381.6860046386719 Q 357.40342241210936 381.6860046386719 357.40342241210936 381.34550463867185 Q 357.40342241210936 381.0050046386719 357.7439224121094 381.0050046386719 L 359.3329224121094 381.0050046386719 Q 359.6734224121094 381.0050046386719 359.6734224121094 380.6645046386719 L 359.6734224121094 366.8175046386719 Q 359.6734224121094 366.4770046386719 359.3329224121094 366.4770046386719 L 357.7439224121094 366.4770046386719 Q 357.40342241210936 366.4770046386719 357.40342241210936 366.13650463867185 Q 357.40342241210936 365.7960046386719 357.7439224121094 365.7960046386719 L 362.28392241210935 365.7960046386719 Q 362.62442241210937 365.7960046386719 362.62442241210937 366.13650463867185 Q 362.62442241210937 366.4770046386719 362.28392241210935 366.4770046386719 L 360.69492241210935 366.4770046386719 Q 360.3544224121094 366.4770046386719 360.3544224121094 366.8175046386719 L 360.3544224121094 380.6645046386719 Q 360.3544224121094 381.0050046386719 360.69492241210935 381.0050046386719 L 362.28392241210935 381.0050046386719 Q 362.62442241210937 381.0050046386719 362.62442241210937 381.34550463867185 Q 362.62442241210937 381.6860046386719 362.28392241210935 381.6860046386719 L 357.7439224121094 381.6860046386719 Z M 366.8208020019531 379.6089546386719 Q 366.8208020019531 379.6089546386719 365.7766020019531 378.45692963867185 Q 364.7324020019531 377.30490463867187 364.7324020019531 373.7410046386719 Q 364.7324020019531 370.1771046386719 366.8208020019531 367.8730546386719 Q 368.90920200195313 365.56900463867186 372.33690200195315 365.56900463867186 Q 375.7646020019531 365.56900463867186 377.85300200195314 367.8730546386719 Q 379.9414020019531 370.1771046386719 379.9414020019531 373.7410046386719 Q 379.9414020019531 377.30490463867187 377.85300200195314 379.6089546386719 Q 375.7646020019531 381.91300463867185 372.33690200195315 381.91300463867185 Q 368.90920200195313 381.91300463867185 366.8208020019531 379.6089546386719 Z M 367.32020200195313 368.36110463867186 Q 367.32020200195313 368.36110463867186 366.36680200195315 369.4166546386719 Q 365.4134020019531 370.4722046386719 365.4134020019531 373.7410046386719 Q 365.4134020019531 377.0098046386719 367.32020200195313 379.1209046386719 Q 369.2270020019531 381.23200463867187 372.33690200195315 381.23200463867187 Q 375.44680200195313 381.23200463867187 377.3536020019531 379.1209046386719 Q 379.26040200195314 377.0098046386719 379.26040200195314 373.7410046386719 Q 379.26040200195314 370.4722046386719 377.3536020019531 368.36110463867186 Q 375.44680200195313 366.2500046386719 372.33690200195315 366.2500046386719 Q 369.2270020019531 366.2500046386719 367.32020200195313 368.36110463867186 Z M 382.38524931640626 381.0050046386719 L 383.97424931640626 381.0050046386719 Q 384.3147493164063 381.0050046386719 384.3147493164063 380.6645046386719 L 384.3147493164063 366.8175046386719 Q 384.3147493164063 366.4770046386719 383.97424931640626 366.4770046386719 L 382.38524931640626 366.4770046386719 Q 382.04474931640624 366.4770046386719 382.04474931640624 366.13650463867185 Q 382.04474931640624 365.7960046386719 382.38524931640626 365.7960046386719 L 384.8822493164063 365.7960046386719 Q 385.2454493164062 365.7960046386719 385.44974931640627 366.13650463867185 L 394.75674931640623 380.32400463867185 Q 394.80214931640626 380.41480463867185 394.89294931640626 380.40345463867186 Q 394.98374931640626 380.39210463867187 394.98374931640626 380.21050463867186 L 394.98374931640626 366.8175046386719 Q 394.98374931640626 366.4770046386719 394.64324931640624 366.4770046386719 L 393.2812493164063 366.4770046386719 Q 392.94074931640625 366.4770046386719 392.94074931640625 366.13650463867185 Q 392.94074931640625 365.7960046386719 393.2812493164063 365.7960046386719 L 397.59424931640626 365.7960046386719 Q 397.9347493164062 365.7960046386719 397.9347493164062 366.13650463867185 Q 397.9347493164062 366.4770046386719 397.59424931640626 366.4770046386719 L 396.00524931640626 366.4770046386719 Q 395.66474931640624 366.4770046386719 395.66474931640624 366.8175046386719 L 395.66474931640624 380.6645046386719 Q 395.66474931640624 381.0050046386719 396.00524931640626 381.0050046386719 L 397.59424931640626 381.0050046386719 Q 397.9347493164062 381.0050046386719 397.9347493164062 381.34550463867185 Q 397.9347493164062 381.6860046386719 397.59424931640626 381.6860046386719 L 395.09724931640625 381.6860046386719 Q 394.73404931640624 381.6860046386719 394.52974931640625 381.34550463867185 L 385.22274931640624 367.15800463867185 Q 385.17734931640626 367.06720463867185 385.08654931640626 367.0785546386719 Q 384.99574931640626 367.0899046386719 384.99574931640626 367.2715046386719 L 384.99574931640626 380.6645046386719 Q 384.99574931640626 381.0050046386719 385.3362493164062 381.0050046386719 L 386.69824931640625 381.0050046386719 Q 387.03874931640627 381.0050046386719 387.03874931640627 381.34550463867185 Q 387.03874931640627 381.6860046386719 386.69824931640625 381.6860046386719 L 382.38524931640626 381.6860046386719 Q 382.04474931640624 381.6860046386719 382.04474931640624 381.34550463867185 Q 382.04474931640624 381.0050046386719 382.38524931640626 381.0050046386719 Z M 402.535055859375 379.9835046386719 Q 404.441855859375 381.23200463867187 406.723205859375 381.23200463867187 Q 409.004555859375 381.23200463867187 410.264405859375 380.22185463867186 Q 411.524255859375 379.21170463867185 411.524255859375 377.60000463867186 Q 411.524255859375 376.7147046386719 410.979455859375 376.0564046386719 Q 410.434655859375 375.3981046386719 409.617455859375 375.0349046386719 Q 408.709455859375 374.62630463867185 406.098955859375 373.9112546386719 Q 403.488455859375 373.1962046386719 402.501005859375 372.7081546386719 Q 401.513555859375 372.2201046386719 400.957405859375 371.4710046386719 Q 400.401255859375 370.7219046386719 400.401255859375 369.74580463867187 Q 400.401255859375 367.8390046386719 401.649755859375 366.70400463867185 Q 402.898255859375 365.56900463867186 405.622255859375 365.56900463867186 Q 408.323555859375 365.56900463867186 410.593555859375 367.4985046386719 Q 410.956755859375 367.79360463867187 410.956755859375 367.2715046386719 L 410.956755859375 366.13650463867185 Q 410.956755859375 365.7960046386719 411.297255859375 365.7960046386719 Q 411.637755859375 365.7960046386719 411.637755859375 366.13650463867185 L 411.637755859375 370.4495046386719 Q 411.637755859375 370.79000463867186 411.297255859375 370.79000463867186 Q 410.956755859375 370.79000463867186 410.956755859375 370.4495046386719 L 410.956755859375 368.8605046386719 Q 409.708255859375 367.43040463867186 407.846855859375 366.6586046386719 Q 406.848055859375 366.2500046386719 405.622255859375 366.2500046386719 Q 403.306855859375 366.2500046386719 402.194555859375 367.2034046386719 Q 401.082255859375 368.1568046386719 401.082255859375 369.5415046386719 Q 401.082255859375 370.42680463867185 401.627055859375 371.08510463867185 Q 402.171855859375 371.74340463867185 402.989055859375 372.10660463867185 Q 403.897055859375 372.5152046386719 406.507555859375 373.23025463867185 Q 409.118055859375 373.94530463867187 410.105505859375 374.43335463867186 Q 411.092955859375 374.9214046386719 411.649105859375 375.6705046386719 Q 412.20525585937503 376.4196046386719 412.20525585937503 377.4638046386719 Q 412.20525585937503 379.5068046386719 410.775155859375 380.7099046386719 Q 409.345055859375 381.91300463867185 406.530255859375 381.91300463867185 Q 403.715455859375 381.91300463867185 401.445455859375 379.9835046386719 Q 401.082255859375 379.6884046386719 401.082255859375 380.21050463867186 L 401.082255859375 381.34550463867185 Q 401.082255859375 381.6860046386719 400.741755859375 381.6860046386719 Q 400.401255859375 381.6860046386719 400.401255859375 381.34550463867185 L 400.401255859375 377.03250463867187 Q 400.401255859375 376.69200463867185 400.741755859375 376.69200463867185 Q 401.082255859375 376.69200463867185 401.082255859375 377.03250463867187 L 401.082255859375 378.73500463867185 Q 401.695155859375 379.4387046386719 402.535055859375 379.9835046386719 Z" transform="matrix(1, 0, 0, 1, 0, 0)" style="fill: rgb(51, 51, 51); white-space: pre;"/>
</svg>